Coordinates
version=1
nRows=60
nColumns=12
inDegrees=yes

Units are S.I. units (second, meters, Newtons, ...)
Angles are in degrees

endheader
time	SC_y	SC_z	SC_x	AC_y	AC_z	AC_x	GH_y	GH_z	GH_yy	EL_x	PS_y
       0.0              -48.15          17.37          50.08          51.66         0.9053         -6.146          -36.7          12.38         -178.3          45.47          31.06
   0.02465              -48.15          17.38          50.08          51.66         0.9053         -6.143         -36.67          12.39         -178.3          45.47          31.07
    0.0493              -48.15          17.38          50.08          51.65         0.9053         -6.141         -36.63           12.4         -178.2          45.47          31.07
   0.07395              -48.15          17.38          50.08          51.65         0.9053         -6.137          -36.6          12.41         -178.2          45.48          31.08
    0.0986              -48.15          17.39          50.07          51.65         0.9053         -6.134         -36.56          12.43         -178.2          45.48          31.08
    0.1233              -48.16          17.39          50.07          51.65         0.9053         -6.131         -36.52          12.44         -178.2          45.48          31.09
    0.1479              -48.16          17.39          50.07          51.65         0.9054         -6.127         -36.48          12.45         -178.2          45.48          31.09
    0.1726              -48.16           17.4          50.07          51.64         0.9054         -6.123         -36.44          12.47         -178.2          45.49           31.1
    0.1972              -48.16           17.4          50.07          51.64         0.9054         -6.118         -36.39          12.48         -178.2          45.49          31.11
    0.2219              -48.16          17.41          50.06          51.64         0.9054         -6.114         -36.34           12.5         -178.1          45.49          31.11
    0.2465              -48.16          17.42          50.06          51.63         0.9054         -6.109         -36.28          12.51         -178.1          45.49          31.12
    0.2712              -48.16          17.42          50.06          51.63         0.9055         -6.103         -36.22          12.53         -178.1           45.5          31.13
    0.2958              -48.16          17.43          50.05          51.63         0.9055         -6.098         -36.16          12.55         -178.1           45.5          31.14
    0.3205              -48.17          17.44          50.05          51.62         0.9055         -6.091         -36.09          12.58         -178.1          45.51          31.15
    0.3451              -48.17          17.44          50.05          51.62         0.9055         -6.085         -36.02           12.6         -178.0          45.51          31.16
    0.3698              -48.17          17.45          50.04          51.62         0.9056         -6.077         -35.93          12.63         -178.0          45.52          31.17
    0.3944              -48.17          17.46          50.04          51.61         0.9056         -6.069         -35.85          12.65         -178.0          45.52          31.19
    0.4191              -48.17          17.47          50.04          51.61         0.9056         -6.061         -35.75          12.69         -178.0          45.53           31.2
    0.4437              -48.18          17.48          50.03           51.6         0.9057         -6.051         -35.64          12.72         -177.9          45.53          31.22
    0.4684              -48.18          17.49          50.03          51.59         0.9057         -6.041         -35.53          12.76         -177.9          45.54          31.24
     0.493              -48.18          17.51          50.02          51.59         0.9058         -6.029          -35.4           12.8         -177.8          45.55          31.25
    0.5177              -48.18          17.52          50.01          51.58         0.9058         -6.017         -35.26          12.84         -177.8          45.55          31.28
    0.5423              -48.19          17.54          50.01          51.57         0.9059         -6.003         -35.11          12.89         -177.8          45.56           31.3
     0.567              -48.19          17.55           50.0          51.56          0.906         -5.987         -34.94          12.94         -177.7          45.57          31.32
    0.5916               -48.2          17.57          49.99          51.55          0.906          -5.97         -34.75           13.0         -177.6          45.59          31.35
    0.6163               -48.2           17.6          49.98          51.54         0.9061         -5.951         -34.54          13.07         -177.6           45.6          31.38
    0.6409              -48.21          17.62          49.97          51.53         0.9062          -5.93         -34.31          13.15         -177.5          45.61          31.42
    0.6656              -48.21          17.65          49.96          51.51         0.9063         -5.906         -34.04          13.23         -177.4          45.63          31.46
    0.6902              -48.22          17.68          49.94          51.49         0.9064         -5.879         -33.74          13.33         -177.3          45.64           31.5
    0.7149              -48.23          17.71          49.93          51.48         0.9066         -5.848          -33.4          13.44         -177.2          45.67          31.55
    0.7395              -48.24          17.76          49.91          51.45         0.9067         -5.813         -33.01          13.56         -177.1          45.69          31.61
    0.7642              -48.25           17.8          49.89          51.43         0.9069         -5.772         -32.56           13.7         -176.9          45.71          31.68
    0.7888              -48.26          17.85          49.86           51.4         0.9071         -5.726         -32.05          13.87         -176.8          45.74          31.76
    0.8135              -48.27          17.92          49.84          51.37         0.9073         -5.672         -31.45          14.06         -176.6          45.78          31.85
    0.8381              -48.29          17.99           49.8          51.33         0.9076         -5.608         -30.75          14.28         -176.3          45.82          31.95
    0.8628              -48.31          18.08          49.76          51.28         0.9079         -5.534         -29.92          14.55         -176.1          45.87          32.08
    0.8874              -48.33          18.18          49.72          51.23         0.9083         -5.445         -28.94          14.86         -175.8          45.93          32.22
    0.9121              -48.36           18.3          49.66          51.16         0.9088         -5.338         -27.76          15.24         -175.4           46.0           32.4
    0.9367              -48.39          18.45           49.6          51.09         0.9093          -5.21         -26.34          15.69         -174.9          46.08          32.61
    0.9614              -48.43          18.63          49.52          50.99           0.91         -5.052          -24.6          16.25         -174.4          46.19          32.87
     0.986              -48.48          18.85          49.42          50.87         0.9109         -4.858         -22.45          16.93         -173.7          46.31          33.19
     1.011              -48.54          19.13          49.29          50.72         0.9119         -4.616         -19.77          17.79         -172.8          46.47           33.6
     1.035              -48.62          19.48          49.13          50.54         0.9132         -4.311          -16.4          18.86         -171.7          46.67           34.1
      1.06              -48.72          19.92          48.93           50.3         0.9149         -3.924         -12.11          20.23         -170.4          46.92          34.74
     1.085              -48.85          20.49          48.68           50.0          0.917         -3.428         -6.623          21.98         -168.6          47.25          35.56
     1.109              -49.01          21.23          48.35          49.61         0.9198         -2.791         0.4194          24.23         -166.3          47.66          36.62
     1.134              -49.22          22.16          47.93          49.11         0.9233         -1.978          9.416           27.1         -163.4          48.19          37.97
     1.159              -49.48          23.33          47.41          48.49         0.9278        -0.9555          20.73          30.72         -159.8          48.86          39.66
     1.183              -49.79          24.76          46.76          47.73         0.9331         0.2906          34.51          35.12         -155.4          49.68          41.73
     1.208              -50.16          26.42          46.02          46.84         0.9394          1.735          50.49          40.22         -150.2          50.62          44.12
     1.233              -50.56          28.22          45.21          45.89         0.9462          3.299          67.79          45.74         -144.7          51.64          46.71
     1.257              -50.96          30.02          44.41          44.93         0.9529          4.863          85.09          51.27         -139.1          52.67           49.3
     1.282              -51.33          31.67          43.66          44.05         0.9592          6.307          101.1          56.37         -134.0          53.61          51.69
     1.307              -51.65          33.11          43.02          43.29         0.9646          7.553          114.9          60.77         -129.5          54.43          53.76
     1.331              -51.91          34.28           42.5          42.67          0.969          8.575          126.2          64.38         -125.9          55.09          55.45
     1.356              -52.12          35.21          42.08          42.17         0.9725          9.389          135.2          67.25         -123.0          55.63           56.8
      1.38              -52.28          35.94          41.75          41.78         0.9753          10.03          142.2           69.5         -120.7          56.04          57.85
     1.405              -52.41          36.51          41.49          41.48         0.9774          10.52          147.7          71.25         -119.0          56.37          58.68
      1.43               -52.5          36.96          41.29          41.24         0.9791          10.91          152.0          72.62         -117.6          56.62          59.32
     1.454              -52.58          37.31          41.14          41.06         0.9804          11.21          155.4           73.7         -116.5          56.82          59.82
